<svg width="24" height="14" viewBox="0 0 24 14" fill="none" xmlns="http://www.w3.org/2000/svg">
<path fill-rule="evenodd" clip-rule="evenodd" d="M20.6554 8.58392C21.4515 9.3565 22.2918 10.0834 23.0058 10.9339C23.3212 11.3118 23.6199 11.7018 23.8483 12.1404C24.172 12.7639 23.8788 13.4501 23.3163 13.4873L19.82 13.4857C18.9182 13.5601 18.1988 13.1993 17.5939 12.5864C17.1098 12.0963 16.6615 11.5747 16.1961 11.0681C16.0052 10.861 15.8055 10.6661 15.5669 10.5121C15.0896 10.2042 14.6753 10.2985 14.4025 10.7933C14.1247 11.2965 14.0617 11.8538 14.0344 12.4147C13.997 13.233 13.7481 13.4482 12.9211 13.4857C11.1537 13.5685 9.47629 13.3027 7.91806 12.4165C6.54426 11.6352 5.47894 10.5323 4.5517 9.28361C2.74634 6.85221 1.36379 4.1805 0.121208 1.43394C-0.158487 0.815142 0.0460603 0.482972 0.732957 0.471215C1.87358 0.44919 3.01405 0.450758 4.15601 0.469648C4.61959 0.476388 4.92649 0.740682 5.10549 1.176C5.7226 2.68425 6.47771 4.11921 7.42553 5.4493C7.67794 5.80342 7.93532 6.15754 8.30184 6.40678C8.7073 6.68275 9.01602 6.59129 9.20677 6.14233C9.32781 5.85766 9.3808 5.55104 9.40808 5.24614C9.49845 4.1972 9.51035 3.15005 9.35186 2.10479C9.25455 1.45244 8.88488 1.03014 8.23 0.906689C7.89582 0.84375 7.94558 0.720147 8.10738 0.530548C8.38842 0.203551 8.65274 0 9.17964 0H13.1311C13.7532 0.122036 13.8913 0.399812 13.9765 1.02198L13.9799 5.3848C13.9731 5.62565 14.1009 6.34039 14.5374 6.49982C14.8867 6.61331 15.117 6.33553 15.3265 6.11537C16.2726 5.11729 16.9479 3.93776 17.5511 2.71638C17.8188 2.17933 18.049 1.62158 18.2721 1.06431C18.4373 0.650781 18.6967 0.447309 19.1653 0.456323L22.9684 0.459693C23.0811 0.459693 23.1952 0.461339 23.3044 0.479915C23.9453 0.58847 24.1209 0.862483 23.923 1.4845C23.6111 2.4604 23.0043 3.27366 22.411 4.09068C21.7768 4.96296 21.0985 5.80538 20.4696 6.68283C19.8917 7.4841 19.9376 7.88799 20.6554 8.58392Z" fill="#4A76A8"/>
</svg>
